# xmcd
#
# Track frame offsets:
#   150
#   19902
#   38953
#   58748
#   77048
#   95523
#   115369
#   135449
#   155830
#   173248
#   192045
#   211061
#   228227
#
# Disc length: 3293 seconds
#
# Revision: 0
# Processed by: cddbd v1.5.2PL0 Copyright (c) Steve Scherf et al.
# Submitted via: uFREEDB ActiveX Control 1.5
#
DISCID=aa0cdb0d
DTITLE=pr genis - receba o azeite
DYEAR=2008
DGENRE=Gospel and Religious
TTITLE0=venho agradecer
TTITLE1=certeza de vitoria
TTITLE2=adeus passado
TTITLE3=me ajude a carregar a cruz
TTITLE4=obediencia
TTITLE5=fe inabalavel
TTITLE6=louvor de oração
TTITLE7=receba o azeite
TTITLE8=tome posse
TTITLE9=o crente esforçado
TTITLE10=nao chore nao
TTITLE11=vem pra ca
TTITLE12=o sabor da vitoria
EXTD=
EXTT0=
EXTT1=
EXTT2=
EXTT3=
EXTT4=
EXTT5=
EXTT6=
EXTT7=
EXTT8=
EXTT9=
EXTT10=
EXTT11=
EXTT12=
PLAYORDER=
